<?xml version="1.0" encoding="utf-8"?>
<!-- Generator: Adobe Illustrator 27.5.0, SVG Export Plug-In . SVG Version: 6.00 Build 0)  -->
<svg version="1.1" id="Calque_1" xmlns="http://www.w3.org/2000/svg" xmlns:xlink="http://www.w3.org/1999/xlink" x="0px" y="0px"
	 viewBox="0 0 30 30" style="enable-background:new 0 0 30 30;" xml:space="preserve">
<style type="text/css">
	.st0{clip-path:url(#SVGID_00000066495698843771676580000016502490720559704753_);}
	.st1{fill:#0F0F0F;}
	.st2{fill:none;stroke:#0F0F0F;stroke-width:2;stroke-linecap:round;stroke-linejoin:round;}
</style>
<g>
	<defs>
		<rect id="SVGID_1_" x="-0.32" y="0.02" width="30.32" height="30.32"/>
	</defs>
	<clipPath id="SVGID_00000153694967435947802820000007925227996866483641_">
		<use xlink:href="#SVGID_1_"  style="overflow:visible;"/>
	</clipPath>
	
		<g id="Groupe_22" transform="translate(0 0)" style="clip-path:url(#SVGID_00000153694967435947802820000007925227996866483641_);">
		<path id="Tracé_48" class="st1" d="M10.87,9.62c0.05,0.83-0.58,1.54-1.41,1.59c-0.06,0-0.12,0-0.18,0
			c-0.84,0.03-1.55-0.62-1.59-1.46c0-0.02,0-0.03,0-0.05C7.66,8.8,8.35,8.06,9.24,8.03c0.01,0,0.03,0,0.04,0
			c0.85-0.02,1.56,0.65,1.59,1.5C10.87,9.55,10.87,9.59,10.87,9.62"/>
		<rect id="Rectangle_28" x="7.69" y="12" class="st1" width="3.18" height="10.33"/>
		<path id="Tracé_49" class="st1" d="M18.49,12.16c-1.21-0.03-2.36,0.57-3.02,1.59h-0.08l-0.16-1.35h-2.86
			c0,0.87,0.08,1.91,0.08,3.1v6.83h3.18v-5.64c-0.02-0.27,0.01-0.54,0.08-0.8c0.18-0.7,0.78-1.21,1.5-1.28
			c1.11,0,1.59,0.95,1.59,2.23v5.48h3.18v-5.88C21.99,13.51,20.48,12.16,18.49,12.16"/>
		<path id="Rectangle_29" class="st2" d="M5.96,1.02h17.76c2.92,0,5.28,2.36,5.28,5.28v17.76c0,2.92-2.36,5.28-5.28,5.28H5.96
			c-2.92,0-5.28-2.36-5.28-5.28V6.29C0.68,3.38,3.04,1.02,5.96,1.02z"/>
	</g>
</g>
</svg>
