<?xml version="1.0" standalone="no"?>
<!DOCTYPE svg PUBLIC "-//W3C//DTD SVG 20010904//EN"
 "http://www.w3.org/TR/2001/REC-SVG-20010904/DTD/svg10.dtd">
<svg version="1.0" xmlns="http://www.w3.org/2000/svg"
 width="512.000000pt" height="512.000000pt" viewBox="0 0 512.000000 512.000000"
 preserveAspectRatio="xMidYMid meet">

<g transform="translate(0.000000,512.000000) scale(0.100000,-0.100000)"
fill="#000000" stroke="none">
<path d="M2445 4359 c-250 -26 -549 -129 -760 -262 -289 -181 -523 -444 -670
-749 -137 -286 -197 -598 -174 -906 10 -135 13 -153 46 -296 l25 -109 -386
-386 -386 -386 140 -140 140 -140 845 845 845 845 422 -423 423 -422 527 527
c290 290 530 525 533 522 3 -4 13 -42 22 -85 23 -111 23 -370 0 -486 -57 -289
-192 -543 -398 -749 -268 -268 -621 -412 -1004 -411 -151 1 -257 16 -400 57
-105 30 -286 115 -376 176 -148 99 -293 240 -377 366 -19 29 -38 53 -41 53
-13 0 -281 -262 -281 -275 0 -22 116 -162 208 -253 371 -365 893 -557 1401
-515 657 55 1214 434 1496 1018 202 416 236 890 96 1334 l-29 93 324 327 324
326 -141 139 -140 140 -875 -875 -874 -874 -423 423 -422 422 -430 -430 -430
-430 -7 37 c-12 66 -8 234 7 338 23 151 59 266 130 412 361 739 1254 1014
1978 609 103 -57 213 -144 314 -248 l91 -95 136 136 c75 75 136 140 136 145 0
16 -129 152 -210 221 -232 199 -499 334 -791 399 -195 43 -392 55 -584 35z"/>
</g>
</svg>
