<?xml version="1.0" encoding="UTF-8"?><svg id="Calque_1" xmlns="http://www.w3.org/2000/svg" viewBox="0 0 10.58 10.58"><defs><style>.cls-1{fill:#e42528;}</style></defs><path class="cls-1" d="m5.29,0C2.37,0,0,2.37,0,5.29s2.37,5.29,5.29,5.29,5.29-2.37,5.29-5.29S8.21,0,5.29,0Zm-2.11,2.9c.07,0,.14.03.19.08l1.93,1.93,1.93-1.93s.11-.08.18-.08c.15,0,.27.11.27.26,0,.07-.03.15-.08.2l-1.93,1.93,1.93,1.93c.11.1.11.27,0,.37-.1.11-.27.11-.37,0,0,0,0,0,0,0l-1.93-1.93-1.93,1.93c-.1.11-.26.12-.37.03s-.12-.26-.03-.37c0-.01.02-.02.03-.03l1.93-1.93-1.93-1.93c-.11-.1-.11-.27,0-.37.05-.05.12-.08.19-.08Z"/></svg>